<svg width="60" height="45" viewBox="0 0 60 45" fill="none" xmlns="http://www.w3.org/2000/svg">
<g clip-path="url(#clip0_8595_46303)">
<path d="M0 0H60V45H0V0Z" fill="#3A7DCE"/>
<path d="M14.7844 21.6375C14.4563 20.9062 14.4563 20.9062 14.4563 20.175C14.2875 20.175 14.2688 20.2031 14.175 20.175C14.0719 20.1469 14.0344 20.85 13.725 20.7187C13.6781 20.6437 13.95 20.1375 13.6594 19.9219C13.5656 19.8562 13.6781 19.4344 13.6406 19.2469C13.6406 19.2469 13.2656 19.4719 12.9844 18.7031C12.8438 18.4969 12.6563 18.8906 12.6563 18.8906C12.6563 18.8906 12.7406 19.1156 12.5906 19.1719C12.3844 19.0031 12.225 19.0969 11.9625 18.8531C11.7 18.6187 12.0188 18.3469 11.5125 18.15C11.8406 17.2312 11.8406 17.4094 12.6563 17.0437C12.1688 16.6687 12.1688 16.6687 11.8406 16.125C11.3531 15.9375 11.1844 15.75 10.6969 15.3937C10.0406 14.4656 9.71252 12.6281 9.71252 11.3437C10.125 10.9125 10.6969 12.8156 11.5125 13.3687L12.6563 13.9219C13.3125 14.2875 13.4719 14.6531 13.9688 15.0187L15.4313 15.5812C16.0875 16.125 16.4156 16.8562 16.9031 17.0437C17.4375 17.0437 17.5406 16.6969 17.7094 16.6781C18.675 16.6219 19.1625 16.4906 19.35 16.1625C19.5469 15.9 20.0063 16.3125 21.3188 15.7594L21.1594 15.0187C21.1594 15.0187 21.5063 14.7 21.975 14.8312C21.9656 14.5031 21.9281 13.6125 22.3969 13.2C22.1156 12.8719 22.5656 12.3562 22.5844 12.1969C22.4531 11.3906 22.7156 11.3812 22.7719 11.1375C22.8281 10.9031 22.5469 10.9781 22.6219 10.65C22.7063 10.3219 23.1844 10.2469 23.2406 9.975C23.3063 9.70312 23.1375 8.63437 23.1188 8.4C24 8.1375 24.2813 7.33125 24.5906 7.66875C24.75 6.5625 24.9188 6.1875 25.9031 6.1875C26.0344 5.85 25.5375 5.55937 25.7344 5.44687C26.0625 5.4 26.3063 5.42812 26.6907 5.98125C26.8125 6.16875 26.8406 5.72812 26.9625 5.68125C27.0844 5.63437 27.375 5.63437 27.4219 5.41875C27.4688 5.19375 27.5344 4.89375 27.7031 4.52812C27.8344 4.22812 27.9375 4.65 28.0594 5.23125C28.7531 5.25937 30.3094 5.42812 30.9656 5.63437C31.4531 5.775 31.7813 5.49375 32.25 5.42812C32.5969 5.82187 32.925 5.52187 33.1125 6.36562C33.3657 6.81562 33.7969 6.40312 33.8906 6.53437C34.4344 8.23125 36.3094 7.0875 36.4594 7.11562C36.6938 7.11562 36.9844 7.86562 37.1813 7.85625C37.4813 7.8 37.3969 7.56562 37.6688 7.65937C37.5938 8.29687 38.1938 9.02812 38.1938 9.50625C38.1938 9.50625 38.3344 9.59062 38.475 9.45C38.6063 9.3 38.7281 8.94375 38.85 8.95312C39.1313 9 40.9125 9.51562 41.2688 9.69375C41.4282 10.0219 41.5781 10.1906 41.9063 10.1344C42.1688 10.3312 41.9813 10.6031 42.1313 10.6125C42.4594 10.425 42.5719 10.2375 42.9 10.4156C43.2281 10.6031 43.5563 10.9687 43.7156 11.3344C43.7156 11.5219 43.5469 12.2531 43.7156 13.3594C43.8 13.725 44.625 16.3875 44.625 16.6594C44.625 17.0344 44.3719 17.2219 44.2031 17.5875C44.8594 18.1406 44.2031 19.0594 43.875 19.6125C46.3313 20.1656 45.1875 21.2625 47.1469 20.7094C46.6594 22.0031 46.8282 21.9 47.3157 23.1844C46.3406 23.9156 47.2969 24.1406 46.65 25.0594C46.6031 25.125 47.0344 25.8656 47.6344 25.8656C47.475 27.3281 46.9781 26.7844 47.1469 28.9875C45.8625 28.9594 46.3781 30.6375 45.5156 30.4594C45.5625 31.5094 46.0031 31.6031 45.8344 32.6625C45.1781 32.85 45.1782 32.85 44.8594 33.4031L44.3719 33.2156C44.2031 34.1344 43.875 34.3219 44.3719 35.2406C44.3719 35.2406 43.7344 35.2594 43.5469 35.2406C43.5375 35.5594 43.8281 35.6437 43.875 35.9719C43.8563 36.1031 42.9469 36.6844 42.2438 36.7125C42.0563 37.1625 42.7313 37.65 42.6938 37.875C41.925 38.0437 41.5875 39.0938 41.5875 39.0938C41.5875 39.0938 41.9813 39.2812 41.9156 39.4688C41.7094 39.3 41.5875 39.2812 41.2594 39.2812C41.1 39.3281 40.6969 39.2812 40.3219 40.0031C39.9 40.1531 39.7031 40.0969 39.3844 40.5656C39.2438 40.125 39.0375 40.575 38.7938 40.7531C38.5406 40.9219 38.2125 41.3625 38.1656 41.3438C38.175 41.2125 38.3157 40.7531 38.3157 40.7531L37.4063 40.9688C37.3406 40.9781 37.3594 40.4344 37.2 40.4531C37.0406 40.4719 36.6 41.1375 36.45 41.1562C36.3 41.175 36.2531 40.95 36.1219 40.9688C35.9906 40.9875 35.7469 41.6719 35.6531 41.6906C35.5594 41.7 35.1844 41.2687 34.875 41.3344C33.2719 41.9719 33.0094 40.0781 32.7656 41.1469C32.4281 40.9406 32.4844 41.0531 32.1375 41.1562C31.9219 41.2219 31.9032 40.8375 31.7063 40.8375C31.3219 40.8562 31.3313 41.2687 31.125 41.1469C30.9563 40.2844 29.9063 40.4344 29.8125 40.0687C29.7188 39.6937 30.2625 39.6937 30.4313 39.4312C30.5625 39.0562 30.2906 38.9062 30.8344 38.55C31.5375 38.0156 31.4719 36.6937 31.2938 36.1781C31.2938 36.1781 30.7406 34.5187 30.6375 34.5187C30.3094 34.425 30.3094 35.1281 29.8313 35.325C28.8469 35.7 27.1125 34.3969 26.8125 34.3969C26.5406 34.3969 25.2656 34.7344 25.3125 34.0219C25.125 34.7156 24.4219 34.1812 24.375 34.1812C23.7188 34.1812 23.9719 34.7531 23.5313 34.7344C23.3344 34.6594 21.3188 34.5187 21.3188 34.5187V34.8937L18.8719 33.7875C17.8875 33.4125 18.375 32.5031 16.7438 33.0562V31.95H15.9281C16.2563 29.7375 15.9282 30.8437 15.7594 28.8187L15.1032 29.0062C14.4469 28.0125 16.0219 28.2 14.6156 27.5344C14.6156 27.5344 14.6438 26.4375 14.2875 26.8031C14.2219 26.85 14.4563 27.3469 14.4563 27.3469C13.1438 27.1594 12.825 26.8031 12.825 25.3312C12.825 25.3312 13.8938 25.5 13.8 25.3312C13.65 25.05 13.4531 23.2687 13.4813 23.1375C13.4719 22.8937 14.4844 22.2937 14.2875 21.7125C14.4188 21.6562 14.7844 21.6469 14.7844 21.6469" fill="white"/>
<path fill-rule="evenodd" clip-rule="evenodd" d="M9.59018 12.7578C9.59834 12.7579 9.60598 12.758 9.61288 12.758C9.67193 12.758 9.7198 12.8058 9.7198 12.8649C9.7198 12.9055 9.69783 12.9311 9.68988 12.9395C9.68047 12.9494 9.67125 12.9553 9.66737 12.9577C9.65913 12.9628 9.65126 12.9663 9.64846 12.9675L9.6484 12.9675C9.64519 12.9689 9.63857 12.9716 9.63342 12.9737C9.63085 12.9747 9.62865 12.9756 9.62743 12.9761C9.614 12.9817 9.59734 12.9893 9.57915 13.0007C9.54368 13.0231 9.49972 13.0618 9.46941 13.1334C9.45158 13.1755 9.40893 13.2016 9.36331 13.1984C9.31769 13.1951 9.2792 13.1632 9.26755 13.1189C9.24915 13.0491 9.24313 12.9832 9.25911 12.9248C9.27666 12.8605 9.3176 12.8166 9.36793 12.7911C9.41322 12.7681 9.4627 12.7616 9.50152 12.7592C9.53109 12.7573 9.5634 12.7576 9.59018 12.7578ZM9.56296 12.7715C9.56369 12.7711 9.56384 12.7711 9.56318 12.7714C9.56311 12.7714 9.56303 12.7714 9.56296 12.7715ZM9.65283 13.3398C9.65288 13.3398 9.65293 13.3398 9.63707 13.4455L9.65293 13.3398C9.69173 13.3456 9.72423 13.3722 9.7376 13.4091C9.75096 13.446 9.74305 13.4873 9.71699 13.5166C9.70389 13.5313 9.68948 13.5392 9.68621 13.5409C9.6861 13.541 9.686 13.5411 9.68591 13.5411C9.68083 13.5439 9.67606 13.5461 9.67385 13.5471C9.67122 13.5483 9.6694 13.5491 9.66785 13.5497C9.6655 13.5508 9.66376 13.5516 9.66068 13.553C9.65322 13.5566 9.64356 13.5617 9.63222 13.5704C9.61019 13.5871 9.57473 13.6223 9.54123 13.6976C9.5223 13.7402 9.47794 13.7657 9.43162 13.7605C9.38529 13.7553 9.34766 13.7207 9.33863 13.6749C9.32347 13.5982 9.32812 13.5283 9.35816 13.4696C9.38869 13.4099 9.4379 13.3764 9.4828 13.3586C9.52626 13.3414 9.56899 13.3374 9.59795 13.3368C9.613 13.3365 9.62581 13.3371 9.63517 13.3379C9.63988 13.3382 9.6438 13.3386 9.64679 13.339C9.64829 13.3392 9.64956 13.3393 9.65059 13.3395L9.65195 13.3397L9.65249 13.3397L9.65272 13.3398L9.65283 13.3398ZM10.8931 16.2072C10.9155 16.2643 10.918 16.331 10.9032 16.4058C10.8942 16.4515 10.8566 16.4861 10.8103 16.4913C10.7639 16.4965 10.7196 16.4711 10.7006 16.4285C10.6648 16.3478 10.6307 16.3033 10.6088 16.2794C10.5977 16.2674 10.5887 16.2594 10.5816 16.2534C10.5812 16.2531 10.5808 16.2527 10.5802 16.2522C10.5773 16.2497 10.5716 16.245 10.5676 16.2411C10.5651 16.2388 10.5589 16.2329 10.5527 16.2247L10.5525 16.2246C10.5486 16.2193 10.5301 16.1949 10.5301 16.1582C10.5301 16.1028 10.5726 16.0565 10.6278 16.0517L10.6371 16.1582C10.6278 16.0517 10.6279 16.0517 10.628 16.0517L10.6281 16.0517L10.6284 16.0517L10.629 16.0516L10.6304 16.0515C10.6315 16.0514 10.6328 16.0514 10.6343 16.0513C10.6373 16.0512 10.6411 16.051 10.6456 16.051C10.6547 16.051 10.6668 16.0514 10.681 16.053C10.7085 16.0561 10.7485 16.0642 10.7883 16.0866C10.8299 16.11 10.87 16.1485 10.8931 16.2072ZM47.925 26.9594C47.9415 26.9192 47.9806 26.893 48.0239 26.893H48.032C48.085 26.893 48.13 26.9319 48.1378 26.9843C48.1404 27.0019 48.1454 27.0189 48.153 27.0422L48.1551 27.0486C48.1618 27.0693 48.1709 27.0971 48.1764 27.1267C48.1905 27.2024 48.1807 27.2825 48.1247 27.3799C48.1053 27.4136 48.0692 27.4341 48.0303 27.4335C47.9914 27.4328 47.956 27.4112 47.9377 27.3769C47.8733 27.2561 47.8654 27.1047 47.925 26.9594Z" fill="white"/>
</g>
<defs>
<clipPath id="clip0_8595_46303">
<rect width="60" height="45" fill="white"/>
</clipPath>
</defs>
</svg>
